<?xml version="1.0" standalone="no"?>
<!DOCTYPE svg PUBLIC "-//W3C//DTD SVG 20010904//EN"
 "http://www.w3.org/TR/2001/REC-SVG-20010904/DTD/svg10.dtd">
<svg version="1.0" xmlns="http://www.w3.org/2000/svg"
 width="700.000000pt" height="700.000000pt" viewBox="0 0 700.000000 700.000000"
 preserveAspectRatio="xMidYMid meet">
<metadata>
Created by potrace 1.14, written by Peter Selinger 2001-2017
</metadata>
<g transform="translate(0.000000,700.000000) scale(0.100000,-0.100000)"
fill="#000000" stroke="none">
<path d="M3457 6564 c-1 -1 -60 -4 -132 -8 -71 -4 -143 -9 -160 -10 -154 -15
-238 -25 -275 -31 -14 -2 -45 -7 -70 -10 -150 -20 -361 -61 -542 -104 -1254
-300 -2043 -878 -2229 -1633 -38 -157 -44 -207 -43 -388 0 -163 17 -244 78
-376 136 -292 440 -494 761 -503 l30 -1 1 -1233 c0 -677 4 -1254 8 -1280 40
-273 285 -509 561 -543 33 -4 967 -7 2075 -7 1921 -1 2018 0 2090 18 135 33
238 90 326 180 54 56 135 181 149 230 4 17 9 35 11 40 26 84 27 146 28 1342 1
683 3 1244 6 1246 3 3 38 8 78 11 338 31 644 277 748 601 31 97 39 157 39 300
-1 312 -87 589 -264 851 -79 117 -114 159 -236 279 -254 252 -572 450 -1012
629 -250 102 -645 219 -934 277 -57 11 -111 22 -119 24 -22 4 -267 43 -320 50
-25 3 -56 8 -70 10 -14 2 -52 7 -85 10 -33 3 -76 8 -95 10 -59 7 -397 23 -403
19z"/>
</g>
</svg>
